HIERARCHY
ROOT SpineBase
{
  OFFSET 0.000000 0.000000 0.000000
  CHANNELS 6 Xposition Yposition Zposition Zrotation Xrotation Yrotation
  JOINT SpineMid
  {
    OFFSET -0.000000 31.796324 0.000000
    CHANNELS 3 Zrotation Xrotation Yrotation
    JOINT SpineShoulder
    {
      OFFSET -0.179643 23.649348 -0.708021
      CHANNELS 3 Zrotation Xrotation Yrotation
      JOINT Neck
      {
        OFFSET -0.122431 7.849146 -0.556161
        CHANNELS 3 Zrotation Xrotation Yrotation
        JOINT Head
        {
          OFFSET -5.446349 7.176612 6.783327
          CHANNELS 3 Zrotation Xrotation Yrotation
          End Site
          {
            OFFSET 0 0 0
          }
        }
      }
      JOINT ShoulderLeft
      {
        OFFSET -3.675519 -10.706838 11.780458
        CHANNELS 3 Zrotation Xrotation Yrotation
        JOINT ElbowLeft
        {
          OFFSET 0.195786 -6.288466 -24.964674
          CHANNELS 3 Zrotation Xrotation Yrotation
          JOINT WristLeft
          {
            OFFSET -4.233556 -20.973691 8.699307
            CHANNELS 3 Zrotation Xrotation Yrotation
            JOINT HandLeft
            {
              OFFSET -1.413490 -2.428973 -1.540488
              CHANNELS 3 Zrotation Xrotation Yrotation
              JOINT HandTipLeft
              {
                OFFSET -1.853899 -0.713771 6.219490
                CHANNELS 3 Zrotation Xrotation Yrotation
                End Site
                {
                  OFFSET 0 0 0
                }
              }
              JOINT ThumbLeft
              {
                OFFSET 0.722356 -1.012766 -5.268356
                CHANNELS 3 Zrotation Xrotation Yrotation
                End Site
                {
                  OFFSET 0 0 0
                }
              }
            }
          }
        }
      }
      JOINT ShoulderRight
      {
        OFFSET 1.807580 -2.819361 -14.836234
        CHANNELS 3 Zrotation Xrotation Yrotation
        JOINT ElbowRight
        {
          OFFSET -1.300583 -23.669063 -6.252828
          CHANNELS 3 Zrotation Xrotation Yrotation
          JOINT WristRight
          {
            OFFSET -6.216218 -23.017493 2.465221
            CHANNELS 3 Zrotation Xrotation Yrotation
            JOINT HandRight
            {
              OFFSET -0.413084 -5.673335 1.892374
              CHANNELS 3 Zrotation Xrotation Yrotation
              JOINT HandTipRight
              {
                OFFSET -1.650194 -7.133850 1.654471
                CHANNELS 3 Zrotation Xrotation Yrotation
                End Site
                {
                  OFFSET 0 0 0
                }
              }
              JOINT ThumbRight
              {
                OFFSET -3.265814 2.449379 2.721850
                CHANNELS 3 Zrotation Xrotation Yrotation
                End Site
                {
                  OFFSET 0 0 0
                }
              }
            }
          }
        }
      }
    }
  }
  JOINT HipLeft
  {
    OFFSET -1.853809 0.965197 0.534436
    CHANNELS 3 Zrotation Xrotation Yrotation
    JOINT KneeLeft
    {
      OFFSET 3.751376 -31.580887 -11.846928
      CHANNELS 3 Zrotation Xrotation Yrotation
      JOINT AnkleLeft
      {
        OFFSET 7.697458 -32.183707 -2.482136
        CHANNELS 3 Zrotation Xrotation Yrotation
        JOINT FootLeft
        {
          OFFSET -3.475773 -2.173841 7.021089
          CHANNELS 3 Zrotation Xrotation Yrotation
          End Site
          {
            OFFSET 0 0 0
          }
        }
      }
    }
  }
  JOINT HipRight
  {
    OFFSET 0.066087 0.876127 -7.506064
    CHANNELS 3 Zrotation Xrotation Yrotation
    JOINT KneeRight
    {
      OFFSET 0.330927 -27.621147 -3.957068
      CHANNELS 3 Zrotation Xrotation Yrotation
      JOINT AnkleRight
      {
        OFFSET 9.651105 -33.602378 -2.213615
        CHANNELS 3 Zrotation Xrotation Yrotation
        JOINT FootRight
        {
          OFFSET -11.945381 -2.586428 -5.289584
          CHANNELS 3 Zrotation Xrotation Yrotation
          End Site
          {
            OFFSET 0 0 0
          }
        }
      }
    }
  }
}
MOTION
Frames: 10
Frame Time: 0.033333
94.630872 69.288307 374.209990 -0.207895 0.532609 72.772379 -0.447145 -0.356308 -72.772803 -0.000000 0.000000 0.000000 0.952543 0.985034 -0.158698 0.000000 0.000000 0.000000 -0.000000 0.000000 0.000000 -0.000000 0.000000 0.000000 8.823645 -3.996949 -3.184459 -0.572250 28.911365 -13.005505 0.000000 0.000000 0.000000 0.000000 0.000000 0.000000 0.977242 2.011454 -0.384262 0.427054 -2.878168 0.793655 -2.717221 -3.343854 -0.529573 0.999562 3.237715 0.258203 0.000000 0.000000 0.000000 0.000000 0.000000 0.000000 -2.230427 -2.743783 -73.770859 -0.802953 3.181128 1.049106 1.555950 6.102354 -3.904575 0.000000 0.000000 0.000000 -0.397632 -2.991012 -73.143065 -2.156455 1.762206 0.653116 34.314274 -16.085099 -2.064919 0.000000 0.000000 0.000000
94.662061 69.329106 374.256710 -0.145779 0.560961 73.197545 -0.494874 -0.301712 -73.198135 -0.000000 0.000000 0.000000 0.988950 0.917552 -0.242920 0.000000 0.000000 0.000000 -0.000000 0.000000 0.000000 -0.000000 0.000000 0.000000 9.438298 -5.295612 -2.685450 0.392001 32.786977 -14.636814 0.000000 0.000000 0.000000 0.000000 0.000000 0.000000 0.784238 2.005461 -0.329715 1.023450 -2.811155 0.790489 -3.360341 -3.662588 -0.623320 1.531564 4.502838 0.124401 0.000000 0.000000 0.000000 0.000000 0.000000 0.000000 -2.226450 -2.628528 -74.172845 -0.924974 3.051546 1.036904 3.679000 3.310992 9.634807 0.000000 0.000000 0.000000 -0.661880 -3.032640 -73.582414 -2.391265 1.950287 0.675244 45.304007 -21.144602 -3.434278 0.000000 0.000000 0.000000
94.730763 69.337315 374.293619 -0.009395 0.564903 75.324521 -0.544095 -0.152201 -75.325197 -0.000000 0.000000 0.000000 1.955526 1.505775 -0.713330 0.000000 0.000000 0.000000 -0.208682 -1.293023 0.822727 2.750590 4.350127 -0.545172 7.988039 -6.762151 -4.433451 2.515439 40.012067 -13.487735 0.000000 0.000000 0.000000 0.000000 0.000000 0.000000 0.488777 2.039924 -0.248817 1.811028 -2.883501 0.807283 -3.914509 -2.799837 -0.751962 2.449669 3.419219 0.422337 0.000000 0.000000 0.000000 0.000000 0.000000 0.000000 -2.314591 -2.187974 -76.201664 -0.969774 2.894215 0.960911 5.284803 2.940362 15.798304 0.000000 0.000000 0.000000 -0.713297 -3.228009 -75.762102 -2.853842 2.178973 0.807882 40.398412 -19.188849 -3.799521 0.000000 0.000000 0.000000
94.847013 69.335833 374.235004 0.144309 0.661712 76.179506 -0.677027 -0.017936 -76.180445 0.306092 0.902357 0.033371 3.841827 2.391075 -1.435693 0.000000 0.000000 0.000000 0.152389 -2.650913 -2.024647 -3.059749 3.247358 0.763630 10.428688 -5.798450 -0.594917 7.971989 39.319817 -22.045815 0.000000 0.000000 0.000000 0.000000 0.000000 0.000000 0.607891 1.001673 -0.383585 1.868885 -2.727637 0.966615 -3.638274 -2.699183 -0.542115 3.136042 2.972833 0.535684 0.000000 0.000000 0.000000 0.000000 0.000000 0.000000 -2.793427 -1.787839 -76.968679 -1.247004 2.460930 0.781662 6.611530 2.877695 19.893193 0.000000 0.000000 0.000000 -1.165852 -3.159258 -76.629616 -3.588458 2.391664 0.872202 32.054232 -15.174969 -5.080253 0.000000 0.000000 0.000000
94.981396 69.361966 374.194144 0.351305 0.730715 73.670944 0.069310 0.128518 -73.660498 0.319246 0.147504 0.043334 0.999546 1.618237 0.410451 0.000000 0.000000 0.000000 0.009921 -0.841922 -2.327337 -5.413070 -3.240415 0.686002 18.626579 0.884591 -7.142647 -1.425687 37.091652 -18.146873 0.000000 0.000000 0.000000 0.000000 0.000000 0.000000 0.101547 0.844093 -0.335078 2.256559 -2.888261 0.990682 -3.089000 -2.979452 -0.336775 2.846525 3.494909 0.329690 0.000000 0.000000 0.000000 0.000000 0.000000 0.000000 -2.856754 -1.757625 -74.467821 -1.269570 2.487514 0.793933 6.645959 7.147847 13.587232 0.000000 0.000000 0.000000 -1.477697 -2.723900 -74.071013 -3.658337 2.627596 0.871846 36.415698 -16.248483 0.114567 0.000000 0.000000 0.000000
95.147980 69.434696 374.058731 0.415721 1.194314 68.706872 -0.116758 0.087172 -68.694890 0.338906 0.151237 0.049776 -2.256312 0.862014 3.053432 0.000000 0.000000 0.000000 -0.433031 1.241474 -0.716660 -4.889677 -12.000009 -0.014802 55.830895 -20.896977 -22.811147 -62.022583 25.872516 8.310535 0.000000 0.000000 0.000000 0.000000 0.000000 0.000000 -0.739709 0.643698 -0.147848 2.931702 -3.455548 0.933699 -2.352665 -3.175684 -0.173565 0.922682 4.103244 -0.123300 0.000000 0.000000 0.000000 0.000000 0.000000 0.000000 -3.012650 -2.423233 -69.644303 -1.620237 2.466371 0.929769 8.121604 15.876652 -0.935916 0.000000 0.000000 0.000000 -2.739291 -2.293296 -68.992046 -3.302558 3.298948 0.801645 34.297828 -15.603759 -4.422932 0.000000 0.000000 0.000000
95.328576 69.369435 373.836848 0.660869 1.613309 63.653949 -0.133035 0.168515 -63.640339 0.355544 0.088334 0.061883 -6.396064 -3.477396 3.741723 0.000000 0.000000 0.000000 -1.719334 5.412892 3.050422 -0.402195 -28.153364 0.732110 80.845080 -52.786187 -24.027447 -98.992033 -17.295933 21.301425 0.000000 0.000000 0.000000 0.000000 0.000000 0.000000 -2.276199 1.008159 0.138004 4.296167 -5.015435 0.923327 -2.736396 -2.315618 -0.500976 -4.322795 5.212867 -1.095139 0.000000 0.000000 0.000000 0.000000 0.000000 0.000000 -2.859040 -3.166512 -64.819973 -2.877582 3.006739 1.411672 12.174867 22.905381 -20.271896 0.000000 0.000000 0.000000 -4.659260 -1.756173 -63.777552 -2.162346 4.413440 0.646091 31.785632 -14.792997 -9.620431 0.000000 0.000000 0.000000
95.627969 69.041737 373.546769 1.383063 1.699011 59.848269 -0.231608 -0.051994 -59.816740 0.313249 0.076736 0.091872 -16.184090 -10.199783 6.639925 0.000000 0.000000 0.000000 -4.761396 14.081634 8.561950 17.646631 -58.775434 16.604993 71.342975 -59.950729 30.953415 -103.816496 17.132342 43.220954 0.000000 0.000000 0.000000 0.000000 0.000000 0.000000 -4.680006 1.529694 0.473068 5.648629 -6.356332 0.823848 -3.654751 -0.398958 -1.126623 -5.886784 4.232098 -1.191345 0.000000 0.000000 0.000000 0.000000 0.000000 0.000000 -2.530880 -3.158631 -61.190114 -3.515138 2.928026 1.666246 13.122010 23.843264 -22.012233 0.000000 0.000000 0.000000 -7.163506 -0.581217 -59.683621 -0.126828 5.977173 0.378629 29.529405 -14.283543 -15.715069 0.000000 0.000000 0.000000
95.882716 68.448611 373.225720 2.331527 1.467397 57.835439 -0.229892 -0.542887 -57.764840 0.259452 0.072995 0.137025 -32.335647 -21.366590 10.191626 0.000000 0.000000 0.000000 -10.182754 25.772507 16.035926 126.175910 -61.004605 129.499015 23.405081 -40.573355 18.585135 -82.500975 20.696559 44.609485 0.000000 0.000000 0.000000 0.000000 0.000000 0.000000 -7.757718 2.829032 0.880389 7.125394 -8.374978 0.809597 -3.510835 0.815223 -1.413963 -10.246711 5.421933 -2.025543 0.000000 0.000000 0.000000 0.000000 0.000000 0.000000 -1.721393 -2.715225 -59.394839 -4.211250 2.849891 2.023788 18.838718 28.938821 -35.358091 0.000000 0.000000 0.000000 -9.894306 0.637629 -57.296505 1.658026 7.860370 0.111854 20.369046 -8.900204 -19.888679 0.000000 0.000000 0.000000
96.266517 67.666263 372.902596 3.726028 0.978655 56.293403 -0.227942 -1.049233 -56.160340 0.124565 0.048232 0.192495 -50.303246 -33.432580 11.348789 0.000000 0.000000 0.000000 -18.174485 37.609465 25.139250 136.595058 -22.977447 149.869078 -15.129668 2.661683 6.937652 -55.307832 2.914351 30.404089 0.000000 0.000000 0.000000 0.000000 0.000000 0.000000 -11.126280 4.296877 1.357263 8.525829 -9.840235 0.685285 -3.209111 1.831054 -1.574991 -13.601440 4.127883 -2.463287 0.000000 0.000000 0.000000 0.000000 0.000000 0.000000 -1.227460 -1.588608 -58.020790 -5.031856 2.301736 2.205218 26.180913 32.191596 -55.927436 0.000000 0.000000 0.000000 -12.831880 2.539784 -55.113449 3.862850 9.616759 -0.301031 16.356499 -6.211474 -23.171383 0.000000 0.000000 0.000000
